<svg xmlns="http://www.w3.org/2000/svg" viewBox="0 0 396.85 425.2"><defs><style>.cls-1{fill:none;}.cls-2{fill:#005f1e;}.cls-3{fill:#e3000f;}.cls-4{fill:#fff;}.cls-5{fill:#007f2c;}</style></defs><title>HNV_Heineken_Mexico_Logo_FC</title><g id="Background"><rect class="cls-1" width="396.85" height="425.2"/></g><g id="Heineken_Mexico" data-name="Heineken Mexico"><path class="cls-2" d="M211.65,384.76a1.37,1.37,0,0,1-1.45-1.37V358.2a1.32,1.32,0,0,1,1.33-1.4h3.63a1.32,1.32,0,0,1,1.33,1.4v25.19a1.37,1.37,0,0,1-1.45,1.37Zm-68.51-1.09a1.54,1.54,0,0,1-1.63,1.09h-1.35a1.7,1.7,0,0,1-1.78-1.12l-6.95-14.8-.26,14.33c0,1.18-.62,1.59-1.68,1.59h-2.62a1.45,1.45,0,0,1-1.64-1.67l1.09-24.81a1.4,1.4,0,0,1,1.56-1.48h2.4a1.83,1.83,0,0,1,1.88,1.21L141,376.26,149.13,358a1.74,1.74,0,0,1,1.81-1.23h2.28a1.36,1.36,0,0,1,1.52,1.44L156,383.05c.05,1-.4,1.71-1.52,1.71H151.3c-1.12,0-1.59-.52-1.63-1.88l-.45-14.09Zm62.68-1a1.41,1.41,0,0,1,.12,1.44,1.36,1.36,0,0,1-1.24.65H201A2.21,2.21,0,0,1,199,383.6l-4.8-8.1-4.8,8.1a2.11,2.11,0,0,1-2.09,1.16h-3.2a1.24,1.24,0,0,1-1.17-.6,1.41,1.41,0,0,1,.12-1.44l7.79-12.33-7.24-11.58a1.39,1.39,0,0,1-.1-1.41,1.25,1.25,0,0,1,1.14-.6h3.7a2.18,2.18,0,0,1,1.94,1.15l4.22,7.11,4.34-7.22a1.85,1.85,0,0,1,1.85-1h3.48a1.21,1.21,0,0,1,1.14.62,1.36,1.36,0,0,1-.16,1.41L197.77,370Zm16.47-11.89c0-9,4.76-14.44,12.73-14.44a19.74,19.74,0,0,1,7.92,1.64,1.43,1.43,0,0,1,.88,2l-.85,2.28a1.34,1.34,0,0,1-.73.82,1.47,1.47,0,0,1-1.16-.12,12.8,12.8,0,0,0-5.29-1.18c-4.31,0-6.88,3.31-6.88,9s2.57,9,6.88,9a13,13,0,0,0,5.29-1.17,1.43,1.43,0,0,1,1.16-.13,1.37,1.37,0,0,1,.73.82l.85,2.28a1.44,1.44,0,0,1-.88,2,19.89,19.89,0,0,1-7.92,1.63C227.05,385.21,222.29,379.75,222.29,370.78Zm24.59,0c0,8.83,4.81,14.43,12.37,14.43s12.37-5.6,12.37-14.43-4.81-14.44-12.37-14.44S246.88,361.94,246.88,370.78Zm6.59,0c0-6,1.95-9,5.78-9s5.77,3,5.77,9-1.94,9-5.77,9S253.47,376.73,253.47,370.78Zm-87-17.8a1.73,1.73,0,0,1-.37-1.13,1.5,1.5,0,0,1,.74-1l5.26-3.72a1.68,1.68,0,0,1,1.27-.42,1.5,1.5,0,0,1,1,.73l1.16,1.74a1.41,1.41,0,0,1,.27,1.14,1.34,1.34,0,0,1-.73.85l-5.85,3.24a2,2,0,0,1-.91.27,1.41,1.41,0,0,1-1.15-.73Zm11.29,31.78a1.42,1.42,0,0,0,1.56-1.56V381a1.42,1.42,0,0,0-1.6-1.52h-9.66V373h8.27a1.37,1.37,0,0,0,1.56-1.48v-2.28a1.37,1.37,0,0,0-1.56-1.48h-8.27v-5.71h9c.58,0,1.78,0,1.94-1.37l.27-2.3a1.28,1.28,0,0,0-1.44-1.61H163.13a1.32,1.32,0,0,0-1.33,1.4v25.19a1.37,1.37,0,0,0,1.45,1.37Z"/><path class="cls-2" d="M266.83,297.59h-7.67a5.61,5.61,0,0,0-4.73,2.16l-10.84,12.49V297.59H233V335a2.14,2.14,0,0,0,2.13,2.12h8.51V319.2L253,333.86c1.4,2.19,2.79,3.27,6,3.27h8.73L252.76,313.8l14.07-16.21Zm-45,0H198.13v36a3.87,3.87,0,0,0,4,3.53h19.7A2.13,2.13,0,0,0,224,335V329.9H210.36a1.61,1.61,0,0,1-1.6-1.61V320h12.12v-7.22H208.76v-7.93H224v-5.1a2.14,2.14,0,0,0-2.13-2.13Zm74.86,0H273v36a3.87,3.87,0,0,0,4,3.53h19.71A2.13,2.13,0,0,0,298.8,335V329.9H285.21a1.6,1.6,0,0,1-1.59-1.61V320h12.11v-7.22H283.62v-7.93H298.8v-5.1a2.14,2.14,0,0,0-2.12-2.13Zm-150.81,0H135.24V335a2.13,2.13,0,0,0,2.12,2.12h8.51V297.59Zm-22.45,0H99.72v36a3.83,3.83,0,0,0,4,3.53h19.7a2.13,2.13,0,0,0,2.13-2.12V329.9H112a1.6,1.6,0,0,1-1.6-1.61V320h12.11v-7.22H110.36v-7.93h15.19v-5.1a2.14,2.14,0,0,0-2.13-2.13Zm-34.44,0H78.34v15.16H69V297.59H56.69v1.56a2.81,2.81,0,0,1,1.69,2.65v35.33H69V320h9.3v17.15H89V297.59Zm98.4,0V335a2.13,2.13,0,0,1-2.12,2.12h-6.53l-14.36-22.66a30,30,0,0,1,.3,4.24v18.42h-8V297.59h5.16a6.54,6.54,0,0,1,5.92,3.26l12,18.92a15.45,15.45,0,0,1-.39-4.28v-17.9Zm152.78,0v1.56a2.87,2.87,0,0,0-1.69,2.65V335a2.12,2.12,0,0,1-2.12,2.12h-6.52l-14.37-22.66a30,30,0,0,1,.3,4.24v18.42h-7.95V297.59H313a6.57,6.57,0,0,1,5.93,3.26l12,18.92a15.84,15.84,0,0,1-.38-4.28v-17.9Z"/><path class="cls-3" d="M36.88,312a.66.66,0,0,1-1-.74c.29-.87,5.64-17.34,5.64-17.34L26.74,283.19a.66.66,0,0,1,.39-1.2H45.36s5.35-16.46,5.63-17.34a.67.67,0,0,1,1.27,0c.28.89,5.63,17.34,5.63,17.34H76.12a.66.66,0,0,1,.39,1.2l-8.8,6.39H57.3l-3.21-9.89-3.22,9.89H40.46l8.43,6.12-3.22,9.9Z"/><circle class="cls-4" cx="198.43" cy="155.46" r="115.02"/><path class="cls-5" d="M208,172.6a7.07,7.07,0,0,0,.31-4,48.3,48.3,0,0,0-5-12.28V89.7c0-24.37-1.75-41.05-12.69-49q3.84-.26,7.74-.26a115.25,115.25,0,0,1,30.43,4.07c-6.59,5.58-9.5,12.51-11.45,22.38,6.29-9.18,15-15.68,24.53-17.94a115.14,115.14,0,0,1,25.55,14.53c-21.7,0-33.45,12.37-42.21,29.72,17.14-16.75,39.13-23.12,58.11-15.27a115.6,115.6,0,0,1,17.68,25.56c-9.18-6.62-26.49-12.82-35.32-4.77,2.73,10.75-7.09,10-17.17,8.35-21.26-3.56-25.55,18.52-13.06,25.5,7.64,3.45,16.54,0,18.16-6.22.95-3.66-2.05-7.11-6.38-6,3.34,6.74-9.16,8.45-9.76.72-.29-3.67,3.28-5.62,10.12-5.93,32.61-1.49,53.94-3.31,62.31,17.07,4.87,11.83,4.09,25.33.94,29.51-4.79-7.12-13.86-12.16-46.92-10.94a7.72,7.72,0,0,0-6.8,4.83h9.13c1.69,2,5.48,8.92,7.3,12.57.58,1.15,1.76,4.11.81,5.14a77.79,77.79,0,0,0-12.05-.47,79.07,79.07,0,0,0-18.18,4.08c-1.77.68-1.6,1,.27,1.11,1.05,0,1.56,0,3.14,0a19.16,19.16,0,0,0,7.56,3.26,15,15,0,0,0,6.14.21c1.43-.27,3.32-.46,4.11.41.41.47.66.35.57-.3a6,6,0,0,0-1.55-3.29c-.42-.48-.28-.78.3-.75,1.41.06,4.59-.07,5.93-.74.23-.11.55-.1.43.27a3.48,3.48,0,0,0,1.55,3.68c2.65,1.87,5.33,3.65,9.36,10.84,4.35,7.76,5.38,11.5.94,13.32a31.78,31.78,0,0,1-6.4,2.06c-1,.21-1,.24-.73,1.22.28,1.17.58,3,.73,4.15.13,1,.22,2.1-1.71,2.76a99.86,99.86,0,0,1-10.07,2.1.3.3,0,0,0,.09.6,42.06,42.06,0,0,1,7.33.25c1,.14,3.93,3,3.93,4a8.43,8.43,0,0,1-2.95,6.3c-1.09,1-1.11,1.11-.32,2.94.69,1.61,2.27,5.12.95,8.07-4.44,10-16.87,8.28-30.75,7-6.58-.61-7.26-.54-7.36,3.64a107.18,107.18,0,0,0,.62,14,114.74,114.74,0,0,1-37.88,6.39,116.31,116.31,0,0,1-22-2.1c-.84-6.43-1.11-14.41-.09-18.17.95-3.48,4.64-3.16,7.38-2.72a86.58,86.58,0,0,0,15.81,1.13c5.17-.22,7.26-1.78,8.47-5.25s-.5-8-1.25-9.76c-1-2.28-.41-2.33,2.17-5.08,1.81-1.94,2-2.68,1.39-3.85a10.83,10.83,0,0,0-2.9-3.68c-.29-.23-.4-.27-.95-.23a69.53,69.53,0,0,1-7.9,0c-.37,0-.38-.46,0-.54a43.37,43.37,0,0,0,10.28-3.37c.76-.41.82-.7.61-1.43a24.92,24.92,0,0,0-1.75-4.51c-.45-.86-.26-1.19.78-1.24a15.42,15.42,0,0,0,6.47-1.67c3.06-1.8,3.38-3.44,2.23-7a90.27,90.27,0,0,0-4.89-11.55c-2-3.89-2.84-4.91-4-5.94-1.5-1.34-3.23-3.31-3.35-4.09a4.39,4.39,0,0,1,.53-1.89,21.09,21.09,0,0,0,1.24-5.1Z"/><path class="cls-3" d="M150.41,50.91A114.58,114.58,0,0,1,176,42.63c7.52,17.19,7.12,32.47,1.45,45.68C174.39,68.33,162.13,55.28,150.41,50.91Zm9.43,61a78,78,0,0,0,10.39-11.29c-4.19-20-19.11-35-39.82-38a116,116,0,0,0-26.52,27.23C129.64,80.18,152,96.22,159.84,111.94Zm-10.6,8.33c-13.22-17.9-39.87-16.16-58-6.54a114.23,114.23,0,0,0-7.35,31.44C106,141.69,130.39,133.23,149.24,120.27Zm-8.07,135c-6.9-20.72,2.16-41.37,34.47-37,1.94-8.45-1.09-13.05-8.14-16-21.6-9-5.93-37.8,13.55-45.93h22.33v-14c-29.83,0-45,.9-55,2.75-8.22,1.53-13.46,5.14-12.14,11.33,1.75,8.27,14.09,7,10.23-.82,4.75-1.24,8.19,2.56,7.34,6.61-.73,3.51-2.45,5.76-6.87,7.66-6.46,2.78-34.09,9.25-42.52,52A115.76,115.76,0,0,0,141.17,255.25Zm-7.65-85.77a13.8,13.8,0,0,1-4.86-18.34c-6.83,2.05-17.67,3.67-45.26,3.82v.5a114.56,114.56,0,0,0,10.07,47.13C103.3,184.41,118.49,172.49,133.52,169.48Zm72.08,7.69a21,21,0,0,0,1.09-4.7c-2.05-.13-5.89-.19-8.64-.05a82.34,82.34,0,0,0-19.24,4.1l-.65.25c-2.07.84-1.32,1.5.33,1.58a19.4,19.4,0,0,0,3.35-.06,21.68,21.68,0,0,0,8.24,4,12.14,12.14,0,0,0,6.21.11c1.88-.51,3.66-.39,4.4.36a.43.43,0,0,0,.74-.35,6.09,6.09,0,0,0-1.5-3.09c-.59-.7-.24-1,.22-1a12.36,12.36,0,0,0,3.53-.42A14.25,14.25,0,0,0,205.6,177.17Z"/></g></svg>